<?xml version="1.0" encoding="utf-8" standalone="no"?>
<!DOCTYPE svg PUBLIC "-//W3C//DTD SVG 1.1//EN"
  "http://www.w3.org/Graphics/SVG/1.1/DTD/svg11.dtd">
<svg xmlns:xlink="http://www.w3.org/1999/xlink" width="720pt" height="360pt" viewBox="0 0 720 360" xmlns="http://www.w3.org/2000/svg" version="1.1">
 <metadata>
  <rdf:RDF xmlns:dc="http://purl.org/dc/elements/1.1/" xmlns:cc="http://creativecommons.org/ns#" xmlns:rdf="http://www.w3.org/1999/02/22-rdf-syntax-ns#">
   <cc:Work>
    <dc:type rdf:resource="http://purl.org/dc/dcmitype/StillImage"/>
    <dc:date>2024-03-08T13:46:40.470493</dc:date>
    <dc:format>image/svg+xml</dc:format>
    <dc:creator>
     <cc:Agent>
      <dc:title>Matplotlib v3.8.3, https://matplotlib.org/</dc:title>
     </cc:Agent>
    </dc:creator>
   </cc:Work>
  </rdf:RDF>
 </metadata>
 <defs>
  <style type="text/css">*{stroke-linejoin: round; stroke-linecap: butt}</style>
 </defs>
 <g id="figure_1">
  <g id="patch_1">
   <path d="M 0 360 
L 720 360 
L 720 0 
L 0 0 
z
" style="fill: #ffffff"/>
  </g>
  <g id="axes_1">
   <g id="patch_2">
    <path d="M 10.8 332.775 
L 709.2 332.775 
L 709.2 27.225 
L 10.8 27.225 
z
" style="fill: #ffffff"/>
   </g>
   <g id="patch_3">
    <path d="M 10.8 70.875 
L 54.45 70.875 
L 54.45 114.525 
L 10.8 114.525 
z
" clip-path="url(#p088756a52e)" style="fill: #fffaf0"/>
   </g>
   <g id="patch_4">
    <path d="M 54.45 70.875 
L 98.1 70.875 
L 98.1 114.525 
L 54.45 114.525 
z
" clip-path="url(#p088756a52e)" style="fill: #fffaf0"/>
   </g>
   <g id="patch_5">
    <path d="M 98.1 70.875 
L 141.75 70.875 
L 141.75 114.525 
L 98.1 114.525 
z
" clip-path="url(#p088756a52e)" style="fill: #fffaf0"/>
   </g>
   <g id="patch_6">
    <path d="M 141.75 70.875 
L 185.4 70.875 
L 185.4 114.525 
L 141.75 114.525 
z
" clip-path="url(#p088756a52e)" style="fill: #fffaf0"/>
   </g>
   <g id="patch_7">
    <path d="M 185.4 70.875 
L 229.05 70.875 
L 229.05 114.525 
L 185.4 114.525 
z
" clip-path="url(#p088756a52e)" style="fill: #fffaf0"/>
   </g>
   <g id="patch_8">
    <path d="M 229.05 70.875 
L 272.7 70.875 
L 272.7 114.525 
L 229.05 114.525 
z
" clip-path="url(#p088756a52e)" style="fill: #fffaf0"/>
   </g>
   <g id="patch_9">
    <path d="M 272.7 70.875 
L 316.35 70.875 
L 316.35 114.525 
L 272.7 114.525 
z
" clip-path="url(#p088756a52e)" style="fill: #fffaf0"/>
   </g>
   <g id="patch_10">
    <path d="M 316.35 70.875 
L 360 70.875 
L 360 114.525 
L 316.35 114.525 
z
" clip-path="url(#p088756a52e)" style="fill: #fffaf0"/>
   </g>
   <g id="patch_11">
    <path d="M 360 70.875 
L 403.65 70.875 
L 403.65 114.525 
L 360 114.525 
z
" clip-path="url(#p088756a52e)" style="fill: #fffaf0"/>
   </g>
   <g id="patch_12">
    <path d="M 403.65 70.875 
L 447.3 70.875 
L 447.3 114.525 
L 403.65 114.525 
z
" clip-path="url(#p088756a52e)" style="fill: #fffaf0"/>
   </g>
   <g id="patch_13">
    <path d="M 447.3 70.875 
L 490.95 70.875 
L 490.95 114.525 
L 447.3 114.525 
z
" clip-path="url(#p088756a52e)" style="fill: #fffaf0"/>
   </g>
   <g id="patch_14">
    <path d="M 490.95 70.875 
L 534.6 70.875 
L 534.6 114.525 
L 490.95 114.525 
z
" clip-path="url(#p088756a52e)" style="fill: #fffaf0"/>
   </g>
   <g id="patch_15">
    <path d="M 534.6 70.875 
L 578.25 70.875 
L 578.25 114.525 
L 534.6 114.525 
z
" clip-path="url(#p088756a52e)" style="fill: #fffaf0"/>
   </g>
   <g id="patch_16">
    <path d="M 578.25 70.875 
L 621.9 70.875 
L 621.9 114.525 
L 578.25 114.525 
z
" clip-path="url(#p088756a52e)" style="fill: #fffaf0"/>
   </g>
   <g id="patch_17">
    <path d="M 621.9 70.875 
L 665.55 70.875 
L 665.55 114.525 
L 621.9 114.525 
z
" clip-path="url(#p088756a52e)" style="fill: #fffaf0"/>
   </g>
   <g id="patch_18">
    <path d="M 665.55 70.875 
L 709.2 70.875 
L 709.2 114.525 
L 665.55 114.525 
z
" clip-path="url(#p088756a52e)" style="fill: #fffaf0"/>
   </g>
   <g id="patch_19">
    <path d="M 10.8 114.525 
L 54.45 114.525 
L 54.45 158.175 
L 10.8 158.175 
z
" clip-path="url(#p088756a52e)" style="fill: #fffaf0"/>
   </g>
   <g id="patch_20">
    <path d="M 54.45 114.525 
L 98.1 114.525 
L 98.1 158.175 
L 54.45 158.175 
z
" clip-path="url(#p088756a52e)" style="fill: #fffaf0"/>
   </g>
   <g id="patch_21">
    <path d="M 98.1 114.525 
L 141.75 114.525 
L 141.75 158.175 
L 98.1 158.175 
z
" clip-path="url(#p088756a52e)" style="fill: #fffaf0"/>
   </g>
   <g id="patch_22">
    <path d="M 141.75 114.525 
L 185.4 114.525 
L 185.4 158.175 
L 141.75 158.175 
z
" clip-path="url(#p088756a52e)" style="fill: #fffaf0"/>
   </g>
   <g id="patch_23">
    <path d="M 185.4 114.525 
L 229.05 114.525 
L 229.05 158.175 
L 185.4 158.175 
z
" clip-path="url(#p088756a52e)" style="fill: #fffaf0"/>
   </g>
   <g id="patch_24">
    <path d="M 229.05 114.525 
L 272.7 114.525 
L 272.7 158.175 
L 229.05 158.175 
z
" clip-path="url(#p088756a52e)" style="fill: #fffaf0"/>
   </g>
   <g id="patch_25">
    <path d="M 272.7 114.525 
L 316.35 114.525 
L 316.35 158.175 
L 272.7 158.175 
z
" clip-path="url(#p088756a52e)" style="fill: #fffaf0"/>
   </g>
   <g id="patch_26">
    <path d="M 316.35 114.525 
L 360 114.525 
L 360 158.175 
L 316.35 158.175 
z
" clip-path="url(#p088756a52e)" style="fill: #fffaf0"/>
   </g>
   <g id="patch_27">
    <path d="M 360 114.525 
L 403.65 114.525 
L 403.65 158.175 
L 360 158.175 
z
" clip-path="url(#p088756a52e)" style="fill: #fffaf0"/>
   </g>
   <g id="patch_28">
    <path d="M 403.65 114.525 
L 447.3 114.525 
L 447.3 158.175 
L 403.65 158.175 
z
" clip-path="url(#p088756a52e)" style="fill: #fffaf0"/>
   </g>
   <g id="patch_29">
    <path d="M 447.3 114.525 
L 490.95 114.525 
L 490.95 158.175 
L 447.3 158.175 
z
" clip-path="url(#p088756a52e)" style="fill: #fffaf0"/>
   </g>
   <g id="patch_30">
    <path d="M 490.95 114.525 
L 534.6 114.525 
L 534.6 158.175 
L 490.95 158.175 
z
" clip-path="url(#p088756a52e)" style="fill: #fffaf0"/>
   </g>
   <g id="patch_31">
    <path d="M 534.6 114.525 
L 578.25 114.525 
L 578.25 158.175 
L 534.6 158.175 
z
" clip-path="url(#p088756a52e)" style="fill: #fffaf0"/>
   </g>
   <g id="patch_32">
    <path d="M 578.25 114.525 
L 621.9 114.525 
L 621.9 158.175 
L 578.25 158.175 
z
" clip-path="url(#p088756a52e)" style="fill: #fffaf0"/>
   </g>
   <g id="patch_33">
    <path d="M 621.9 114.525 
L 665.55 114.525 
L 665.55 158.175 
L 621.9 158.175 
z
" clip-path="url(#p088756a52e)" style="fill: #fffaf0"/>
   </g>
   <g id="patch_34">
    <path d="M 665.55 114.525 
L 709.2 114.525 
L 709.2 158.175 
L 665.55 158.175 
z
" clip-path="url(#p088756a52e)" style="fill: #fffaf0"/>
   </g>
   <g id="patch_35">
    <path d="M 10.8 158.175 
L 54.45 158.175 
L 54.45 201.825 
L 10.8 201.825 
z
" clip-path="url(#p088756a52e)" style="fill: #fffaf0"/>
   </g>
   <g id="patch_36">
    <path d="M 54.45 158.175 
L 98.1 158.175 
L 98.1 201.825 
L 54.45 201.825 
z
" clip-path="url(#p088756a52e)" style="fill: #fffaf0"/>
   </g>
   <g id="patch_37">
    <path d="M 98.1 158.175 
L 141.75 158.175 
L 141.75 201.825 
L 98.1 201.825 
z
" clip-path="url(#p088756a52e)" style="fill: #fffaf0"/>
   </g>
   <g id="patch_38">
    <path d="M 141.75 158.175 
L 185.4 158.175 
L 185.4 201.825 
L 141.75 201.825 
z
" clip-path="url(#p088756a52e)" style="fill: #fffaf0"/>
   </g>
   <g id="patch_39">
    <path d="M 185.4 158.175 
L 229.05 158.175 
L 229.05 201.825 
L 185.4 201.825 
z
" clip-path="url(#p088756a52e)" style="fill: #fffaf0"/>
   </g>
   <g id="patch_40">
    <path d="M 229.05 158.175 
L 272.7 158.175 
L 272.7 201.825 
L 229.05 201.825 
z
" clip-path="url(#p088756a52e)" style="fill: #fffaf0"/>
   </g>
   <g id="patch_41">
    <path d="M 272.7 158.175 
L 316.35 158.175 
L 316.35 201.825 
L 272.7 201.825 
z
" clip-path="url(#p088756a52e)" style="fill: #fffaf0"/>
   </g>
   <g id="patch_42">
    <path d="M 316.35 158.175 
L 360 158.175 
L 360 201.825 
L 316.35 201.825 
z
" clip-path="url(#p088756a52e)" style="fill: #fffaf0"/>
   </g>
   <g id="patch_43">
    <path d="M 360 158.175 
L 403.65 158.175 
L 403.65 201.825 
L 360 201.825 
z
" clip-path="url(#p088756a52e)" style="fill: #fffaf0"/>
   </g>
   <g id="patch_44">
    <path d="M 403.65 158.175 
L 447.3 158.175 
L 447.3 201.825 
L 403.65 201.825 
z
" clip-path="url(#p088756a52e)" style="fill: #fffaf0"/>
   </g>
   <g id="patch_45">
    <path d="M 447.3 158.175 
L 490.95 158.175 
L 490.95 201.825 
L 447.3 201.825 
z
" clip-path="url(#p088756a52e)" style="fill: #fffaf0"/>
   </g>
   <g id="patch_46">
    <path d="M 490.95 158.175 
L 534.6 158.175 
L 534.6 201.825 
L 490.95 201.825 
z
" clip-path="url(#p088756a52e)" style="fill: #fffaf0"/>
   </g>
   <g id="patch_47">
    <path d="M 534.6 158.175 
L 578.25 158.175 
L 578.25 201.825 
L 534.6 201.825 
z
" clip-path="url(#p088756a52e)" style="fill: #fffaf0"/>
   </g>
   <g id="patch_48">
    <path d="M 578.25 158.175 
L 621.9 158.175 
L 621.9 201.825 
L 578.25 201.825 
z
" clip-path="url(#p088756a52e)" style="fill: #fffaf0"/>
   </g>
   <g id="patch_49">
    <path d="M 621.9 158.175 
L 665.55 158.175 
L 665.55 201.825 
L 621.9 201.825 
z
" clip-path="url(#p088756a52e)" style="fill: #fffaf0"/>
   </g>
   <g id="patch_50">
    <path d="M 665.55 158.175 
L 709.2 158.175 
L 709.2 201.825 
L 665.55 201.825 
z
" clip-path="url(#p088756a52e)" style="fill: #fffaf0"/>
   </g>
   <g id="patch_51">
    <path d="M 10.8 201.825 
L 54.45 201.825 
L 54.45 245.475 
L 10.8 245.475 
z
" clip-path="url(#p088756a52e)" style="fill: #fffaf0"/>
   </g>
   <g id="patch_52">
    <path d="M 54.45 201.825 
L 98.1 201.825 
L 98.1 245.475 
L 54.45 245.475 
z
" clip-path="url(#p088756a52e)" style="fill: #fffaf0"/>
   </g>
   <g id="patch_53">
    <path d="M 98.1 201.825 
L 141.75 201.825 
L 141.75 245.475 
L 98.1 245.475 
z
" clip-path="url(#p088756a52e)" style="fill: #fffaf0"/>
   </g>
   <g id="patch_54">
    <path d="M 141.75 201.825 
L 185.4 201.825 
L 185.4 245.475 
L 141.75 245.475 
z
" clip-path="url(#p088756a52e)" style="fill: #fffaf0"/>
   </g>
   <g id="patch_55">
    <path d="M 185.4 201.825 
L 229.05 201.825 
L 229.05 245.475 
L 185.4 245.475 
z
" clip-path="url(#p088756a52e)" style="fill: #fffaf0"/>
   </g>
   <g id="patch_56">
    <path d="M 229.05 201.825 
L 272.7 201.825 
L 272.7 245.475 
L 229.05 245.475 
z
" clip-path="url(#p088756a52e)" style="fill: #fffaf0"/>
   </g>
   <g id="patch_57">
    <path d="M 272.7 201.825 
L 316.35 201.825 
L 316.35 245.475 
L 272.7 245.475 
z
" clip-path="url(#p088756a52e)" style="fill: #fffaf0"/>
   </g>
   <g id="patch_58">
    <path d="M 316.35 201.825 
L 360 201.825 
L 360 245.475 
L 316.35 245.475 
z
" clip-path="url(#p088756a52e)" style="fill: #fffaf0"/>
   </g>
   <g id="patch_59">
    <path d="M 360 201.825 
L 403.65 201.825 
L 403.65 245.475 
L 360 245.475 
z
" clip-path="url(#p088756a52e)" style="fill: #fffaf0"/>
   </g>
   <g id="patch_60">
    <path d="M 403.65 201.825 
L 447.3 201.825 
L 447.3 245.475 
L 403.65 245.475 
z
" clip-path="url(#p088756a52e)" style="fill: #fffaf0"/>
   </g>
   <g id="patch_61">
    <path d="M 447.3 201.825 
L 490.95 201.825 
L 490.95 245.475 
L 447.3 245.475 
z
" clip-path="url(#p088756a52e)" style="fill: #fffaf0"/>
   </g>
   <g id="patch_62">
    <path d="M 490.95 201.825 
L 534.6 201.825 
L 534.6 245.475 
L 490.95 245.475 
z
" clip-path="url(#p088756a52e)" style="fill: #fffaf0"/>
   </g>
   <g id="patch_63">
    <path d="M 534.6 201.825 
L 578.25 201.825 
L 578.25 245.475 
L 534.6 245.475 
z
" clip-path="url(#p088756a52e)" style="fill: #fffaf0"/>
   </g>
   <g id="patch_64">
    <path d="M 578.25 201.825 
L 621.9 201.825 
L 621.9 245.475 
L 578.25 245.475 
z
" clip-path="url(#p088756a52e)" style="fill: #fffaf0"/>
   </g>
   <g id="patch_65">
    <path d="M 621.9 201.825 
L 665.55 201.825 
L 665.55 245.475 
L 621.9 245.475 
z
" clip-path="url(#p088756a52e)" style="fill: #fffaf0"/>
   </g>
   <g id="patch_66">
    <path d="M 665.55 201.825 
L 709.2 201.825 
L 709.2 245.475 
L 665.55 245.475 
z
" clip-path="url(#p088756a52e)" style="fill: #fffaf0"/>
   </g>
   <g id="patch_67">
    <path d="M 10.8 245.475 
L 54.45 245.475 
L 54.45 289.125 
L 10.8 289.125 
z
" clip-path="url(#p088756a52e)" style="fill: #fffaf0"/>
   </g>
   <g id="patch_68">
    <path d="M 54.45 245.475 
L 98.1 245.475 
L 98.1 289.125 
L 54.45 289.125 
z
" clip-path="url(#p088756a52e)" style="fill: #fffaf0"/>
   </g>
   <g id="patch_69">
    <path d="M 98.1 245.475 
L 141.75 245.475 
L 141.75 289.125 
L 98.1 289.125 
z
" clip-path="url(#p088756a52e)" style="fill: #fffaf0"/>
   </g>
   <g id="patch_70">
    <path d="M 141.75 245.475 
L 185.4 245.475 
L 185.4 289.125 
L 141.75 289.125 
z
" clip-path="url(#p088756a52e)" style="fill: #fffaf0"/>
   </g>
   <g id="patch_71">
    <path d="M 185.4 245.475 
L 229.05 245.475 
L 229.05 289.125 
L 185.4 289.125 
z
" clip-path="url(#p088756a52e)" style="fill: #fffaf0"/>
   </g>
   <g id="patch_72">
    <path d="M 229.05 245.475 
L 272.7 245.475 
L 272.7 289.125 
L 229.05 289.125 
z
" clip-path="url(#p088756a52e)" style="fill: #fffaf0"/>
   </g>
   <g id="patch_73">
    <path d="M 272.7 245.475 
L 316.35 245.475 
L 316.35 289.125 
L 272.7 289.125 
z
" clip-path="url(#p088756a52e)" style="fill: #fffaf0"/>
   </g>
   <g id="patch_74">
    <path d="M 316.35 245.475 
L 360 245.475 
L 360 289.125 
L 316.35 289.125 
z
" clip-path="url(#p088756a52e)" style="fill: #fffaf0"/>
   </g>
   <g id="patch_75">
    <path d="M 360 245.475 
L 403.65 245.475 
L 403.65 289.125 
L 360 289.125 
z
" clip-path="url(#p088756a52e)" style="fill: #fffaf0"/>
   </g>
   <g id="patch_76">
    <path d="M 403.65 245.475 
L 447.3 245.475 
L 447.3 289.125 
L 403.65 289.125 
z
" clip-path="url(#p088756a52e)" style="fill: #fffaf0"/>
   </g>
   <g id="patch_77">
    <path d="M 447.3 245.475 
L 490.95 245.475 
L 490.95 289.125 
L 447.3 289.125 
z
" clip-path="url(#p088756a52e)" style="fill: #fffaf0"/>
   </g>
   <g id="patch_78">
    <path d="M 490.95 245.475 
L 534.6 245.475 
L 534.6 289.125 
L 490.95 289.125 
z
" clip-path="url(#p088756a52e)" style="fill: #fffaf0"/>
   </g>
   <g id="patch_79">
    <path d="M 534.6 245.475 
L 578.25 245.475 
L 578.25 289.125 
L 534.6 289.125 
z
" clip-path="url(#p088756a52e)" style="fill: #fffaf0"/>
   </g>
   <g id="patch_80">
    <path d="M 578.25 245.475 
L 621.9 245.475 
L 621.9 289.125 
L 578.25 289.125 
z
" clip-path="url(#p088756a52e)" style="fill: #fffaf0"/>
   </g>
   <g id="patch_81">
    <path d="M 621.9 245.475 
L 665.55 245.475 
L 665.55 289.125 
L 621.9 289.125 
z
" clip-path="url(#p088756a52e)" style="fill: #fffaf0"/>
   </g>
   <g id="patch_82">
    <path d="M 665.55 245.475 
L 709.2 245.475 
L 709.2 289.125 
L 665.55 289.125 
z
" clip-path="url(#p088756a52e)" style="fill: #fffaf0"/>
   </g>
   <g id="patch_83">
    <path d="M 10.8 27.225 
L 709.2 27.225 
L 709.2 332.775 
L 10.8 332.775 
L 10.8 27.225 
z
" clip-path="url(#p088756a52e)" style="fill: none; stroke: #473f3d; stroke-width: 2; stroke-linejoin: miter"/>
   </g>
   <g id="matplotlib.axis_1">
    <g id="xtick_1">
     <g id="line2d_1"/>
    </g>
    <g id="xtick_2">
     <g id="line2d_2"/>
    </g>
    <g id="xtick_3">
     <g id="line2d_3"/>
    </g>
    <g id="xtick_4">
     <g id="line2d_4"/>
    </g>
    <g id="xtick_5">
     <g id="line2d_5"/>
    </g>
    <g id="xtick_6">
     <g id="line2d_6"/>
    </g>
    <g id="xtick_7">
     <g id="line2d_7"/>
    </g>
    <g id="xtick_8">
     <g id="line2d_8"/>
    </g>
   </g>
   <g id="matplotlib.axis_2">
    <g id="ytick_1">
     <g id="line2d_9"/>
    </g>
    <g id="ytick_2">
     <g id="line2d_10"/>
    </g>
    <g id="ytick_3">
     <g id="line2d_11"/>
    </g>
    <g id="ytick_4">
     <g id="line2d_12"/>
    </g>
    <g id="ytick_5">
     <g id="line2d_13"/>
    </g>
    <g id="ytick_6">
     <g id="line2d_14"/>
    </g>
    <g id="ytick_7">
     <g id="line2d_15"/>
    </g>
   </g>
   <g id="line2d_16">
    <defs>
     <path id="m381880f51b" d="M 0 0.5 
C 0.132602 0.5 0.25979 0.447317 0.353553 0.353553 
C 0.447317 0.25979 0.5 0.132602 0.5 0 
C 0.5 -0.132602 0.447317 -0.25979 0.353553 -0.353553 
C 0.25979 -0.447317 0.132602 -0.5 0 -0.5 
C -0.132602 -0.5 -0.25979 -0.447317 -0.353553 -0.353553 
C -0.447317 -0.25979 -0.5 -0.132602 -0.5 0 
C -0.5 0.132602 -0.447317 0.25979 -0.353553 0.353553 
C -0.25979 0.447317 -0.132602 0.5 0 0.5 
z
" style="stroke: #696969"/>
    </defs>
    <g clip-path="url(#p088756a52e)">
     <use xlink:href="#m381880f51b" x="32.625" y="92.7" style="fill: #696969; stroke: #696969"/>
    </g>
   </g>
   <g id="line2d_17">
    <g clip-path="url(#p088756a52e)">
     <use xlink:href="#m381880f51b" x="76.275" y="92.7" style="fill: #696969; stroke: #696969"/>
    </g>
   </g>
   <g id="line2d_18">
    <g clip-path="url(#p088756a52e)">
     <use xlink:href="#m381880f51b" x="119.925" y="92.7" style="fill: #696969; stroke: #696969"/>
    </g>
   </g>
   <g id="line2d_19">
    <g clip-path="url(#p088756a52e)">
     <use xlink:href="#m381880f51b" x="163.575" y="92.7" style="fill: #696969; stroke: #696969"/>
    </g>
   </g>
   <g id="line2d_20">
    <g clip-path="url(#p088756a52e)">
     <use xlink:href="#m381880f51b" x="207.225" y="92.7" style="fill: #696969; stroke: #696969"/>
    </g>
   </g>
   <g id="line2d_21">
    <g clip-path="url(#p088756a52e)">
     <use xlink:href="#m381880f51b" x="250.875" y="92.7" style="fill: #696969; stroke: #696969"/>
    </g>
   </g>
   <g id="line2d_22">
    <g clip-path="url(#p088756a52e)">
     <use xlink:href="#m381880f51b" x="294.525" y="92.7" style="fill: #696969; stroke: #696969"/>
    </g>
   </g>
   <g id="line2d_23">
    <g clip-path="url(#p088756a52e)">
     <use xlink:href="#m381880f51b" x="338.175" y="92.7" style="fill: #696969; stroke: #696969"/>
    </g>
   </g>
   <g id="line2d_24">
    <g clip-path="url(#p088756a52e)">
     <use xlink:href="#m381880f51b" x="381.825" y="92.7" style="fill: #696969; stroke: #696969"/>
    </g>
   </g>
   <g id="line2d_25">
    <g clip-path="url(#p088756a52e)">
     <use xlink:href="#m381880f51b" x="425.475" y="92.7" style="fill: #696969; stroke: #696969"/>
    </g>
   </g>
   <g id="line2d_26">
    <g clip-path="url(#p088756a52e)">
     <use xlink:href="#m381880f51b" x="469.125" y="92.7" style="fill: #696969; stroke: #696969"/>
    </g>
   </g>
   <g id="line2d_27">
    <g clip-path="url(#p088756a52e)">
     <use xlink:href="#m381880f51b" x="512.775" y="92.7" style="fill: #696969; stroke: #696969"/>
    </g>
   </g>
   <g id="line2d_28">
    <g clip-path="url(#p088756a52e)">
     <use xlink:href="#m381880f51b" x="556.425" y="92.7" style="fill: #696969; stroke: #696969"/>
    </g>
   </g>
   <g id="line2d_29">
    <g clip-path="url(#p088756a52e)">
     <use xlink:href="#m381880f51b" x="600.075" y="92.7" style="fill: #696969; stroke: #696969"/>
    </g>
   </g>
   <g id="line2d_30">
    <g clip-path="url(#p088756a52e)">
     <use xlink:href="#m381880f51b" x="643.725" y="92.7" style="fill: #696969; stroke: #696969"/>
    </g>
   </g>
   <g id="line2d_31">
    <g clip-path="url(#p088756a52e)">
     <use xlink:href="#m381880f51b" x="687.375" y="92.7" style="fill: #696969; stroke: #696969"/>
    </g>
   </g>
   <g id="line2d_32">
    <g clip-path="url(#p088756a52e)">
     <use xlink:href="#m381880f51b" x="32.625" y="136.35" style="fill: #696969; stroke: #696969"/>
    </g>
   </g>
   <g id="line2d_33">
    <g clip-path="url(#p088756a52e)">
     <use xlink:href="#m381880f51b" x="76.275" y="136.35" style="fill: #696969; stroke: #696969"/>
    </g>
   </g>
   <g id="line2d_34">
    <g clip-path="url(#p088756a52e)">
     <use xlink:href="#m381880f51b" x="119.925" y="136.35" style="fill: #696969; stroke: #696969"/>
    </g>
   </g>
   <g id="line2d_35">
    <g clip-path="url(#p088756a52e)">
     <use xlink:href="#m381880f51b" x="163.575" y="136.35" style="fill: #696969; stroke: #696969"/>
    </g>
   </g>
   <g id="line2d_36">
    <g clip-path="url(#p088756a52e)">
     <use xlink:href="#m381880f51b" x="207.225" y="136.35" style="fill: #696969; stroke: #696969"/>
    </g>
   </g>
   <g id="line2d_37">
    <g clip-path="url(#p088756a52e)">
     <use xlink:href="#m381880f51b" x="250.875" y="136.35" style="fill: #696969; stroke: #696969"/>
    </g>
   </g>
   <g id="line2d_38">
    <g clip-path="url(#p088756a52e)">
     <use xlink:href="#m381880f51b" x="294.525" y="136.35" style="fill: #696969; stroke: #696969"/>
    </g>
   </g>
   <g id="line2d_39">
    <g clip-path="url(#p088756a52e)">
     <use xlink:href="#m381880f51b" x="338.175" y="136.35" style="fill: #696969; stroke: #696969"/>
    </g>
   </g>
   <g id="line2d_40">
    <g clip-path="url(#p088756a52e)">
     <use xlink:href="#m381880f51b" x="381.825" y="136.35" style="fill: #696969; stroke: #696969"/>
    </g>
   </g>
   <g id="line2d_41">
    <g clip-path="url(#p088756a52e)">
     <use xlink:href="#m381880f51b" x="425.475" y="136.35" style="fill: #696969; stroke: #696969"/>
    </g>
   </g>
   <g id="line2d_42">
    <g clip-path="url(#p088756a52e)">
     <use xlink:href="#m381880f51b" x="469.125" y="136.35" style="fill: #696969; stroke: #696969"/>
    </g>
   </g>
   <g id="line2d_43">
    <g clip-path="url(#p088756a52e)">
     <use xlink:href="#m381880f51b" x="512.775" y="136.35" style="fill: #696969; stroke: #696969"/>
    </g>
   </g>
   <g id="line2d_44">
    <g clip-path="url(#p088756a52e)">
     <use xlink:href="#m381880f51b" x="556.425" y="136.35" style="fill: #696969; stroke: #696969"/>
    </g>
   </g>
   <g id="line2d_45">
    <g clip-path="url(#p088756a52e)">
     <use xlink:href="#m381880f51b" x="600.075" y="136.35" style="fill: #696969; stroke: #696969"/>
    </g>
   </g>
   <g id="line2d_46">
    <g clip-path="url(#p088756a52e)">
     <use xlink:href="#m381880f51b" x="643.725" y="136.35" style="fill: #696969; stroke: #696969"/>
    </g>
   </g>
   <g id="line2d_47">
    <g clip-path="url(#p088756a52e)">
     <use xlink:href="#m381880f51b" x="687.375" y="136.35" style="fill: #696969; stroke: #696969"/>
    </g>
   </g>
   <g id="line2d_48">
    <g clip-path="url(#p088756a52e)">
     <use xlink:href="#m381880f51b" x="32.625" y="180" style="fill: #696969; stroke: #696969"/>
    </g>
   </g>
   <g id="line2d_49">
    <g clip-path="url(#p088756a52e)">
     <use xlink:href="#m381880f51b" x="76.275" y="180" style="fill: #696969; stroke: #696969"/>
    </g>
   </g>
   <g id="line2d_50">
    <g clip-path="url(#p088756a52e)">
     <use xlink:href="#m381880f51b" x="119.925" y="180" style="fill: #696969; stroke: #696969"/>
    </g>
   </g>
   <g id="line2d_51">
    <g clip-path="url(#p088756a52e)">
     <use xlink:href="#m381880f51b" x="163.575" y="180" style="fill: #696969; stroke: #696969"/>
    </g>
   </g>
   <g id="line2d_52">
    <g clip-path="url(#p088756a52e)">
     <use xlink:href="#m381880f51b" x="207.225" y="180" style="fill: #696969; stroke: #696969"/>
    </g>
   </g>
   <g id="line2d_53">
    <g clip-path="url(#p088756a52e)">
     <use xlink:href="#m381880f51b" x="250.875" y="180" style="fill: #696969; stroke: #696969"/>
    </g>
   </g>
   <g id="line2d_54">
    <g clip-path="url(#p088756a52e)">
     <use xlink:href="#m381880f51b" x="294.525" y="180" style="fill: #696969; stroke: #696969"/>
    </g>
   </g>
   <g id="line2d_55">
    <g clip-path="url(#p088756a52e)">
     <use xlink:href="#m381880f51b" x="338.175" y="180" style="fill: #696969; stroke: #696969"/>
    </g>
   </g>
   <g id="line2d_56">
    <g clip-path="url(#p088756a52e)">
     <use xlink:href="#m381880f51b" x="381.825" y="180" style="fill: #696969; stroke: #696969"/>
    </g>
   </g>
   <g id="line2d_57">
    <g clip-path="url(#p088756a52e)">
     <use xlink:href="#m381880f51b" x="425.475" y="180" style="fill: #696969; stroke: #696969"/>
    </g>
   </g>
   <g id="line2d_58">
    <g clip-path="url(#p088756a52e)">
     <use xlink:href="#m381880f51b" x="469.125" y="180" style="fill: #696969; stroke: #696969"/>
    </g>
   </g>
   <g id="line2d_59">
    <g clip-path="url(#p088756a52e)">
     <use xlink:href="#m381880f51b" x="512.775" y="180" style="fill: #696969; stroke: #696969"/>
    </g>
   </g>
   <g id="line2d_60">
    <g clip-path="url(#p088756a52e)">
     <use xlink:href="#m381880f51b" x="556.425" y="180" style="fill: #696969; stroke: #696969"/>
    </g>
   </g>
   <g id="line2d_61">
    <g clip-path="url(#p088756a52e)">
     <use xlink:href="#m381880f51b" x="600.075" y="180" style="fill: #696969; stroke: #696969"/>
    </g>
   </g>
   <g id="line2d_62">
    <g clip-path="url(#p088756a52e)">
     <use xlink:href="#m381880f51b" x="643.725" y="180" style="fill: #696969; stroke: #696969"/>
    </g>
   </g>
   <g id="line2d_63">
    <g clip-path="url(#p088756a52e)">
     <use xlink:href="#m381880f51b" x="687.375" y="180" style="fill: #696969; stroke: #696969"/>
    </g>
   </g>
   <g id="line2d_64">
    <g clip-path="url(#p088756a52e)">
     <use xlink:href="#m381880f51b" x="32.625" y="223.65" style="fill: #696969; stroke: #696969"/>
    </g>
   </g>
   <g id="line2d_65">
    <g clip-path="url(#p088756a52e)">
     <use xlink:href="#m381880f51b" x="76.275" y="223.65" style="fill: #696969; stroke: #696969"/>
    </g>
   </g>
   <g id="line2d_66">
    <g clip-path="url(#p088756a52e)">
     <use xlink:href="#m381880f51b" x="119.925" y="223.65" style="fill: #696969; stroke: #696969"/>
    </g>
   </g>
   <g id="line2d_67">
    <g clip-path="url(#p088756a52e)">
     <use xlink:href="#m381880f51b" x="163.575" y="223.65" style="fill: #696969; stroke: #696969"/>
    </g>
   </g>
   <g id="line2d_68">
    <g clip-path="url(#p088756a52e)">
     <use xlink:href="#m381880f51b" x="207.225" y="223.65" style="fill: #696969; stroke: #696969"/>
    </g>
   </g>
   <g id="line2d_69">
    <g clip-path="url(#p088756a52e)">
     <use xlink:href="#m381880f51b" x="250.875" y="223.65" style="fill: #696969; stroke: #696969"/>
    </g>
   </g>
   <g id="line2d_70">
    <g clip-path="url(#p088756a52e)">
     <use xlink:href="#m381880f51b" x="294.525" y="223.65" style="fill: #696969; stroke: #696969"/>
    </g>
   </g>
   <g id="line2d_71">
    <g clip-path="url(#p088756a52e)">
     <use xlink:href="#m381880f51b" x="338.175" y="223.65" style="fill: #696969; stroke: #696969"/>
    </g>
   </g>
   <g id="line2d_72">
    <g clip-path="url(#p088756a52e)">
     <use xlink:href="#m381880f51b" x="381.825" y="223.65" style="fill: #696969; stroke: #696969"/>
    </g>
   </g>
   <g id="line2d_73">
    <g clip-path="url(#p088756a52e)">
     <use xlink:href="#m381880f51b" x="425.475" y="223.65" style="fill: #696969; stroke: #696969"/>
    </g>
   </g>
   <g id="line2d_74">
    <g clip-path="url(#p088756a52e)">
     <use xlink:href="#m381880f51b" x="469.125" y="223.65" style="fill: #696969; stroke: #696969"/>
    </g>
   </g>
   <g id="line2d_75">
    <g clip-path="url(#p088756a52e)">
     <use xlink:href="#m381880f51b" x="512.775" y="223.65" style="fill: #696969; stroke: #696969"/>
    </g>
   </g>
   <g id="line2d_76">
    <g clip-path="url(#p088756a52e)">
     <use xlink:href="#m381880f51b" x="556.425" y="223.65" style="fill: #696969; stroke: #696969"/>
    </g>
   </g>
   <g id="line2d_77">
    <g clip-path="url(#p088756a52e)">
     <use xlink:href="#m381880f51b" x="600.075" y="223.65" style="fill: #696969; stroke: #696969"/>
    </g>
   </g>
   <g id="line2d_78">
    <g clip-path="url(#p088756a52e)">
     <use xlink:href="#m381880f51b" x="643.725" y="223.65" style="fill: #696969; stroke: #696969"/>
    </g>
   </g>
   <g id="line2d_79">
    <g clip-path="url(#p088756a52e)">
     <use xlink:href="#m381880f51b" x="687.375" y="223.65" style="fill: #696969; stroke: #696969"/>
    </g>
   </g>
   <g id="line2d_80">
    <g clip-path="url(#p088756a52e)">
     <use xlink:href="#m381880f51b" x="32.625" y="267.3" style="fill: #696969; stroke: #696969"/>
    </g>
   </g>
   <g id="line2d_81">
    <g clip-path="url(#p088756a52e)">
     <use xlink:href="#m381880f51b" x="76.275" y="267.3" style="fill: #696969; stroke: #696969"/>
    </g>
   </g>
   <g id="line2d_82">
    <g clip-path="url(#p088756a52e)">
     <use xlink:href="#m381880f51b" x="119.925" y="267.3" style="fill: #696969; stroke: #696969"/>
    </g>
   </g>
   <g id="line2d_83">
    <g clip-path="url(#p088756a52e)">
     <use xlink:href="#m381880f51b" x="163.575" y="267.3" style="fill: #696969; stroke: #696969"/>
    </g>
   </g>
   <g id="line2d_84">
    <g clip-path="url(#p088756a52e)">
     <use xlink:href="#m381880f51b" x="207.225" y="267.3" style="fill: #696969; stroke: #696969"/>
    </g>
   </g>
   <g id="line2d_85">
    <g clip-path="url(#p088756a52e)">
     <use xlink:href="#m381880f51b" x="250.875" y="267.3" style="fill: #696969; stroke: #696969"/>
    </g>
   </g>
   <g id="line2d_86">
    <g clip-path="url(#p088756a52e)">
     <use xlink:href="#m381880f51b" x="294.525" y="267.3" style="fill: #696969; stroke: #696969"/>
    </g>
   </g>
   <g id="line2d_87">
    <g clip-path="url(#p088756a52e)">
     <use xlink:href="#m381880f51b" x="338.175" y="267.3" style="fill: #696969; stroke: #696969"/>
    </g>
   </g>
   <g id="line2d_88">
    <g clip-path="url(#p088756a52e)">
     <use xlink:href="#m381880f51b" x="381.825" y="267.3" style="fill: #696969; stroke: #696969"/>
    </g>
   </g>
   <g id="line2d_89">
    <g clip-path="url(#p088756a52e)">
     <use xlink:href="#m381880f51b" x="425.475" y="267.3" style="fill: #696969; stroke: #696969"/>
    </g>
   </g>
   <g id="line2d_90">
    <g clip-path="url(#p088756a52e)">
     <use xlink:href="#m381880f51b" x="469.125" y="267.3" style="fill: #696969; stroke: #696969"/>
    </g>
   </g>
   <g id="line2d_91">
    <g clip-path="url(#p088756a52e)">
     <use xlink:href="#m381880f51b" x="512.775" y="267.3" style="fill: #696969; stroke: #696969"/>
    </g>
   </g>
   <g id="line2d_92">
    <g clip-path="url(#p088756a52e)">
     <use xlink:href="#m381880f51b" x="556.425" y="267.3" style="fill: #696969; stroke: #696969"/>
    </g>
   </g>
   <g id="line2d_93">
    <g clip-path="url(#p088756a52e)">
     <use xlink:href="#m381880f51b" x="600.075" y="267.3" style="fill: #696969; stroke: #696969"/>
    </g>
   </g>
   <g id="line2d_94">
    <g clip-path="url(#p088756a52e)">
     <use xlink:href="#m381880f51b" x="643.725" y="267.3" style="fill: #696969; stroke: #696969"/>
    </g>
   </g>
   <g id="line2d_95">
    <g clip-path="url(#p088756a52e)">
     <use xlink:href="#m381880f51b" x="687.375" y="267.3" style="fill: #696969; stroke: #696969"/>
    </g>
   </g>
   <g id="patch_84">
    <path d="M 76.275 162.54 
C 80.905446 162.54 85.346865 164.379696 88.621084 167.653916 
C 91.895304 170.928135 93.735 175.369554 93.735 180 
C 93.735 184.630446 91.895304 189.071865 88.621084 192.346084 
C 85.346865 195.620304 80.905446 197.46 76.275 197.46 
C 71.644554 197.46 67.203135 195.620304 63.928916 192.346084 
C 60.654696 189.071865 58.815 184.630446 58.815 180 
C 58.815 175.369554 60.654696 170.928135 63.928916 167.653916 
C 67.203135 164.379696 71.644554 162.54 76.275 162.54 
L 76.275 162.54 
z
" clip-path="url(#p088756a52e)" style="fill: none; stroke: #c0430b; stroke-linejoin: miter"/>
   </g>
   <g id="patch_85">
    <path d="M 119.925 162.54 
C 124.555446 162.54 128.996865 164.379696 132.271084 167.653916 
C 135.545304 170.928135 137.385 175.369554 137.385 180 
C 137.385 184.630446 135.545304 189.071865 132.271084 192.346084 
C 128.996865 195.620304 124.555446 197.46 119.925 197.46 
C 115.294554 197.46 110.853135 195.620304 107.578916 192.346084 
C 104.304696 189.071865 102.465 184.630446 102.465 180 
C 102.465 175.369554 104.304696 170.928135 107.578916 167.653916 
C 110.853135 164.379696 115.294554 162.54 119.925 162.54 
L 119.925 162.54 
z
" clip-path="url(#p088756a52e)" style="fill: none; stroke: #c0430b; stroke-linejoin: miter"/>
   </g>
   <g id="patch_86">
    <path d="M 163.575 162.54 
C 168.205446 162.54 172.646865 164.379696 175.921084 167.653916 
C 179.195304 170.928135 181.035 175.369554 181.035 180 
C 181.035 184.630446 179.195304 189.071865 175.921084 192.346084 
C 172.646865 195.620304 168.205446 197.46 163.575 197.46 
C 158.944554 197.46 154.503135 195.620304 151.228916 192.346084 
C 147.954696 189.071865 146.115 184.630446 146.115 180 
C 146.115 175.369554 147.954696 170.928135 151.228916 167.653916 
C 154.503135 164.379696 158.944554 162.54 163.575 162.54 
L 163.575 162.54 
z
" clip-path="url(#p088756a52e)" style="fill: none; stroke: #c0430b; stroke-linejoin: miter"/>
   </g>
   <g id="patch_87">
    <path d="M 163.575 171.27 
C 165.890223 171.27 168.110932 172.189848 169.748042 173.826958 
C 171.385152 175.464068 172.305 177.684777 172.305 180 
C 172.305 182.315223 171.385152 184.535932 169.748042 186.173042 
C 168.110932 187.810152 165.890223 188.73 163.575 188.73 
C 161.259777 188.73 159.039068 187.810152 157.401958 186.173042 
C 155.764848 184.535932 154.845 182.315223 154.845 180 
C 154.845 177.684777 155.764848 175.464068 157.401958 173.826958 
C 159.039068 172.189848 161.259777 171.27 163.575 171.27 
z
" clip-path="url(#p088756a52e)" style="fill: #4e7f8d; stroke: #4e7f8d; stroke-linejoin: miter"/>
   </g>
   <g id="patch_88">
    <path d="M 207.225 171.27 
C 209.540223 171.27 211.760932 172.189848 213.398042 173.826958 
C 215.035152 175.464068 215.955 177.684777 215.955 180 
C 215.955 182.315223 215.035152 184.535932 213.398042 186.173042 
C 211.760932 187.810152 209.540223 188.73 207.225 188.73 
C 204.909777 188.73 202.689068 187.810152 201.051958 186.173042 
C 199.414848 184.535932 198.495 182.315223 198.495 180 
C 198.495 177.684777 199.414848 175.464068 201.051958 173.826958 
C 202.689068 172.189848 204.909777 171.27 207.225 171.27 
z
" clip-path="url(#p088756a52e)" style="fill: #4e7f8d; stroke: #4e7f8d; stroke-linejoin: miter"/>
   </g>
   <g id="patch_89">
    <path d="M 10.8 27.225 
L 54.45 27.225 
L 54.45 70.875 
L 10.8 70.875 
z
" clip-path="url(#p088756a52e)" style="fill: #dab564; stroke: #473f3d; stroke-linejoin: miter"/>
   </g>
   <g id="patch_90">
    <path d="M 54.45 27.225 
L 98.1 27.225 
L 98.1 70.875 
L 54.45 70.875 
z
" clip-path="url(#p088756a52e)" style="fill: #dab564; stroke: #473f3d; stroke-linejoin: miter"/>
   </g>
   <g id="patch_91">
    <path d="M 98.1 27.225 
L 141.75 27.225 
L 141.75 70.875 
L 98.1 70.875 
z
" clip-path="url(#p088756a52e)" style="fill: #dab564; stroke: #473f3d; stroke-linejoin: miter"/>
   </g>
   <g id="patch_92">
    <path d="M 141.75 27.225 
L 185.4 27.225 
L 185.4 70.875 
L 141.75 70.875 
z
" clip-path="url(#p088756a52e)" style="fill: #dab564; stroke: #473f3d; stroke-linejoin: miter"/>
   </g>
   <g id="patch_93">
    <path d="M 185.4 27.225 
L 229.05 27.225 
L 229.05 70.875 
L 185.4 70.875 
z
" clip-path="url(#p088756a52e)" style="fill: #dab564; stroke: #473f3d; stroke-linejoin: miter"/>
   </g>
   <g id="patch_94">
    <path d="M 229.05 27.225 
L 272.7 27.225 
L 272.7 70.875 
L 229.05 70.875 
z
" clip-path="url(#p088756a52e)" style="fill: #dab564; stroke: #473f3d; stroke-linejoin: miter"/>
   </g>
   <g id="patch_95">
    <path d="M 272.7 27.225 
L 316.35 27.225 
L 316.35 70.875 
L 272.7 70.875 
z
" clip-path="url(#p088756a52e)" style="fill: #dab564; stroke: #473f3d; stroke-linejoin: miter"/>
   </g>
   <g id="patch_96">
    <path d="M 316.35 27.225 
L 360 27.225 
L 360 70.875 
L 316.35 70.875 
z
" clip-path="url(#p088756a52e)" style="fill: #dab564; stroke: #473f3d; stroke-linejoin: miter"/>
   </g>
   <g id="patch_97">
    <path d="M 360 27.225 
L 403.65 27.225 
L 403.65 70.875 
L 360 70.875 
z
" clip-path="url(#p088756a52e)" style="fill: #dab564; stroke: #473f3d; stroke-linejoin: miter"/>
   </g>
   <g id="patch_98">
    <path d="M 403.65 27.225 
L 447.3 27.225 
L 447.3 70.875 
L 403.65 70.875 
z
" clip-path="url(#p088756a52e)" style="fill: #dab564; stroke: #473f3d; stroke-linejoin: miter"/>
   </g>
   <g id="patch_99">
    <path d="M 447.3 27.225 
L 490.95 27.225 
L 490.95 70.875 
L 447.3 70.875 
z
" clip-path="url(#p088756a52e)" style="fill: #dab564; stroke: #473f3d; stroke-linejoin: miter"/>
   </g>
   <g id="patch_100">
    <path d="M 490.95 27.225 
L 534.6 27.225 
L 534.6 70.875 
L 490.95 70.875 
z
" clip-path="url(#p088756a52e)" style="fill: #dab564; stroke: #473f3d; stroke-linejoin: miter"/>
   </g>
   <g id="patch_101">
    <path d="M 534.6 27.225 
L 578.25 27.225 
L 578.25 70.875 
L 534.6 70.875 
z
" clip-path="url(#p088756a52e)" style="fill: #dab564; stroke: #473f3d; stroke-linejoin: miter"/>
   </g>
   <g id="patch_102">
    <path d="M 578.25 27.225 
L 621.9 27.225 
L 621.9 70.875 
L 578.25 70.875 
z
" clip-path="url(#p088756a52e)" style="fill: #dab564; stroke: #473f3d; stroke-linejoin: miter"/>
   </g>
   <g id="patch_103">
    <path d="M 621.9 27.225 
L 665.55 27.225 
L 665.55 70.875 
L 621.9 70.875 
z
" clip-path="url(#p088756a52e)" style="fill: #dab564; stroke: #473f3d; stroke-linejoin: miter"/>
   </g>
   <g id="patch_104">
    <path d="M 665.55 27.225 
L 709.2 27.225 
L 709.2 70.875 
L 665.55 70.875 
z
" clip-path="url(#p088756a52e)" style="fill: #dab564; stroke: #473f3d; stroke-linejoin: miter"/>
   </g>
   <g id="patch_105">
    <path d="M 10.8 289.125 
L 54.45 289.125 
L 54.45 332.775 
L 10.8 332.775 
z
" clip-path="url(#p088756a52e)" style="fill: #dab564; stroke: #473f3d; stroke-linejoin: miter"/>
   </g>
   <g id="patch_106">
    <path d="M 54.45 289.125 
L 98.1 289.125 
L 98.1 332.775 
L 54.45 332.775 
z
" clip-path="url(#p088756a52e)" style="fill: #dab564; stroke: #473f3d; stroke-linejoin: miter"/>
   </g>
   <g id="patch_107">
    <path d="M 98.1 289.125 
L 141.75 289.125 
L 141.75 332.775 
L 98.1 332.775 
z
" clip-path="url(#p088756a52e)" style="fill: #dab564; stroke: #473f3d; stroke-linejoin: miter"/>
   </g>
   <g id="patch_108">
    <path d="M 141.75 289.125 
L 185.4 289.125 
L 185.4 332.775 
L 141.75 332.775 
z
" clip-path="url(#p088756a52e)" style="fill: #dab564; stroke: #473f3d; stroke-linejoin: miter"/>
   </g>
   <g id="patch_109">
    <path d="M 185.4 289.125 
L 229.05 289.125 
L 229.05 332.775 
L 185.4 332.775 
z
" clip-path="url(#p088756a52e)" style="fill: #dab564; stroke: #473f3d; stroke-linejoin: miter"/>
   </g>
   <g id="patch_110">
    <path d="M 229.05 289.125 
L 272.7 289.125 
L 272.7 332.775 
L 229.05 332.775 
z
" clip-path="url(#p088756a52e)" style="fill: #dab564; stroke: #473f3d; stroke-linejoin: miter"/>
   </g>
   <g id="patch_111">
    <path d="M 272.7 289.125 
L 316.35 289.125 
L 316.35 332.775 
L 272.7 332.775 
z
" clip-path="url(#p088756a52e)" style="fill: #dab564; stroke: #473f3d; stroke-linejoin: miter"/>
   </g>
   <g id="patch_112">
    <path d="M 316.35 289.125 
L 360 289.125 
L 360 332.775 
L 316.35 332.775 
z
" clip-path="url(#p088756a52e)" style="fill: #dab564; stroke: #473f3d; stroke-linejoin: miter"/>
   </g>
   <g id="patch_113">
    <path d="M 360 289.125 
L 403.65 289.125 
L 403.65 332.775 
L 360 332.775 
z
" clip-path="url(#p088756a52e)" style="fill: #dab564; stroke: #473f3d; stroke-linejoin: miter"/>
   </g>
   <g id="patch_114">
    <path d="M 403.65 289.125 
L 447.3 289.125 
L 447.3 332.775 
L 403.65 332.775 
z
" clip-path="url(#p088756a52e)" style="fill: #dab564; stroke: #473f3d; stroke-linejoin: miter"/>
   </g>
   <g id="patch_115">
    <path d="M 447.3 289.125 
L 490.95 289.125 
L 490.95 332.775 
L 447.3 332.775 
z
" clip-path="url(#p088756a52e)" style="fill: #dab564; stroke: #473f3d; stroke-linejoin: miter"/>
   </g>
   <g id="patch_116">
    <path d="M 490.95 289.125 
L 534.6 289.125 
L 534.6 332.775 
L 490.95 332.775 
z
" clip-path="url(#p088756a52e)" style="fill: #dab564; stroke: #473f3d; stroke-linejoin: miter"/>
   </g>
   <g id="patch_117">
    <path d="M 534.6 289.125 
L 578.25 289.125 
L 578.25 332.775 
L 534.6 332.775 
z
" clip-path="url(#p088756a52e)" style="fill: #dab564; stroke: #473f3d; stroke-linejoin: miter"/>
   </g>
   <g id="patch_118">
    <path d="M 578.25 289.125 
L 621.9 289.125 
L 621.9 332.775 
L 578.25 332.775 
z
" clip-path="url(#p088756a52e)" style="fill: #dab564; stroke: #473f3d; stroke-linejoin: miter"/>
   </g>
   <g id="patch_119">
    <path d="M 621.9 289.125 
L 665.55 289.125 
L 665.55 332.775 
L 621.9 332.775 
z
" clip-path="url(#p088756a52e)" style="fill: #dab564; stroke: #473f3d; stroke-linejoin: miter"/>
   </g>
   <g id="patch_120">
    <path d="M 665.55 289.125 
L 709.2 289.125 
L 709.2 332.775 
L 665.55 332.775 
z
" clip-path="url(#p088756a52e)" style="fill: #dab564; stroke: #473f3d; stroke-linejoin: miter"/>
   </g>
   <g id="patch_121">
    <path d="M 85.005 49.05 
L 76.275 44.685 
L 76.275 49.028175 
L 32.625 49.028175 
L 32.625 49.071825 
L 76.275 49.071825 
L 76.275 53.415 
z
" clip-path="url(#p088756a52e)" style="fill: #473f3d; stroke: #473f3d; stroke-linejoin: miter"/>
   </g>
   <g id="patch_122">
    <path d="M 32.625 101.43 
L 36.99 92.7 
L 32.646825 92.7 
L 32.646825 49.05 
L 32.603175 49.05 
L 32.603175 92.7 
L 28.26 92.7 
z
" clip-path="url(#p088756a52e)" style="fill: #473f3d; stroke: #473f3d; stroke-linejoin: miter"/>
   </g>
   <g id="text_1">
    <!-- (0,0) -->
    <g transform="translate(23.1425 38.1625) scale(0.08 -0.08)">
     <defs>
      <path id="DejaVuSans-28" d="M 1984 4856 
Q 1566 4138 1362 3434 
Q 1159 2731 1159 2009 
Q 1159 1288 1364 580 
Q 1569 -128 1984 -844 
L 1484 -844 
Q 1016 -109 783 600 
Q 550 1309 550 2009 
Q 550 2706 781 3412 
Q 1013 4119 1484 4856 
L 1984 4856 
z
" transform="scale(0.015625)"/>
      <path id="DejaVuSans-30" d="M 2034 4250 
Q 1547 4250 1301 3770 
Q 1056 3291 1056 2328 
Q 1056 1369 1301 889 
Q 1547 409 2034 409 
Q 2525 409 2770 889 
Q 3016 1369 3016 2328 
Q 3016 3291 2770 3770 
Q 2525 4250 2034 4250 
z
M 2034 4750 
Q 2819 4750 3233 4129 
Q 3647 3509 3647 2328 
Q 3647 1150 3233 529 
Q 2819 -91 2034 -91 
Q 1250 -91 836 529 
Q 422 1150 422 2328 
Q 422 3509 836 4129 
Q 1250 4750 2034 4750 
z
" transform="scale(0.015625)"/>
      <path id="DejaVuSans-2c" d="M 750 794 
L 1409 794 
L 1409 256 
L 897 -744 
L 494 -744 
L 750 256 
L 750 794 
z
" transform="scale(0.015625)"/>
      <path id="DejaVuSans-29" d="M 513 4856 
L 1013 4856 
Q 1481 4119 1714 3412 
Q 1947 2706 1947 2009 
Q 1947 1309 1714 600 
Q 1481 -109 1013 -844 
L 513 -844 
Q 928 -128 1133 580 
Q 1338 1288 1338 2009 
Q 1338 2731 1133 3434 
Q 928 4138 513 4856 
z
" transform="scale(0.015625)"/>
     </defs>
     <use xlink:href="#DejaVuSans-28"/>
     <use xlink:href="#DejaVuSans-30" x="39.013672"/>
     <use xlink:href="#DejaVuSans-2c" x="102.636719"/>
     <use xlink:href="#DejaVuSans-30" x="134.423828"/>
     <use xlink:href="#DejaVuSans-29" x="198.046875"/>
    </g>
   </g>
   <g id="text_2">
    <!-- x -->
    <g transform="translate(73.9075 38.1625) scale(0.08 -0.08)">
     <defs>
      <path id="DejaVuSans-78" d="M 3513 3500 
L 2247 1797 
L 3578 0 
L 2900 0 
L 1881 1375 
L 863 0 
L 184 0 
L 1544 1831 
L 300 3500 
L 978 3500 
L 1906 2253 
L 2834 3500 
L 3513 3500 
z
" transform="scale(0.015625)"/>
     </defs>
     <use xlink:href="#DejaVuSans-78"/>
    </g>
   </g>
   <g id="text_3">
    <!-- y -->
    <g transform="translate(17.1625 94.9075) scale(0.08 -0.08)">
     <defs>
      <path id="DejaVuSans-79" d="M 2059 -325 
Q 1816 -950 1584 -1140 
Q 1353 -1331 966 -1331 
L 506 -1331 
L 506 -850 
L 844 -850 
Q 1081 -850 1212 -737 
Q 1344 -625 1503 -206 
L 1606 56 
L 191 3500 
L 800 3500 
L 1894 763 
L 2988 3500 
L 3597 3500 
L 2059 -325 
z
" transform="scale(0.015625)"/>
     </defs>
     <use xlink:href="#DejaVuSans-79"/>
    </g>
   </g>
   <g id="line2d_96">
    <defs>
     <path id="mb9c1e92bf8" d="M 0 2.5 
C 0.663008 2.5 1.29895 2.236584 1.767767 1.767767 
C 2.236584 1.29895 2.5 0.663008 2.5 0 
C 2.5 -0.663008 2.236584 -1.29895 1.767767 -1.767767 
C 1.29895 -2.236584 0.663008 -2.5 0 -2.5 
C -0.663008 -2.5 -1.29895 -2.236584 -1.767767 -1.767767 
C -2.236584 -1.29895 -2.5 -0.663008 -2.5 0 
C -2.5 0.663008 -2.236584 1.29895 -1.767767 1.767767 
C -1.29895 2.236584 -0.663008 2.5 0 2.5 
z
" style="stroke: #473f3d"/>
    </defs>
    <g clip-path="url(#p088756a52e)">
     <use xlink:href="#mb9c1e92bf8" x="32.625" y="49.05" style="fill: #473f3d; stroke: #473f3d"/>
    </g>
   </g>
   <g id="line2d_97">
    <path d="M 163.575 180 
" clip-path="url(#p088756a52e)" style="fill: none; stroke: #4e7f8d; stroke-opacity: 0.75; stroke-width: 4; stroke-linecap: square"/>
   </g>
   <g id="patch_123">
    <path d="M 207.225 180 
L 172.305 162.54 
L 172.305 171.27 
L 163.575 171.27 
L 163.575 188.73 
L 172.305 188.73 
L 172.305 197.46 
z
" clip-path="url(#p088756a52e)" style="fill: #4e7f8d; stroke: #26393f; stroke-width: 0.8; stroke-linejoin: miter"/>
   </g>
   <g id="text_4">
    <!-- 1 -->
    <g style="fill: #26393f" transform="translate(178.251875 182.2075) scale(0.08 -0.08)">
     <defs>
      <path id="DejaVuSans-Bold-31" d="M 750 831 
L 1813 831 
L 1813 3847 
L 722 3622 
L 722 4441 
L 1806 4666 
L 2950 4666 
L 2950 831 
L 4013 831 
L 4013 0 
L 750 0 
L 750 831 
z
" transform="scale(0.015625)"/>
     </defs>
     <use xlink:href="#DejaVuSans-Bold-31"/>
    </g>
   </g>
   <g id="patch_124">
    <path d="M 163.575 171.27 
C 165.890223 171.27 168.110932 172.189848 169.748042 173.826958 
C 171.385152 175.464068 172.305 177.684777 172.305 180 
C 172.305 182.315223 171.385152 184.535932 169.748042 186.173042 
C 168.110932 187.810152 165.890223 188.73 163.575 188.73 
C 161.259777 188.73 159.039068 187.810152 157.401958 186.173042 
C 155.764848 184.535932 154.845 182.315223 154.845 180 
C 154.845 177.684777 155.764848 175.464068 157.401958 173.826958 
C 159.039068 172.189848 161.259777 171.27 163.575 171.27 
z
" clip-path="url(#p088756a52e)" style="fill: #4e7f8d; stroke: #26393f; stroke-width: 0.4; stroke-linejoin: miter"/>
   </g>
   <g id="line2d_98">
    <path d="M 76.275 180 
" clip-path="url(#p088756a52e)" style="fill: none; stroke: #c0430b; stroke-opacity: 0.75; stroke-width: 4; stroke-linecap: square"/>
   </g>
   <g id="patch_125">
    <path d="M 119.925 180 
L 85.005 162.54 
L 85.005 171.27 
L 76.275 171.27 
L 76.275 188.73 
L 85.005 188.73 
L 85.005 197.46 
z
" clip-path="url(#p088756a52e)" style="fill: #c0430b; stroke: #531d00; stroke-width: 0.8; stroke-linejoin: miter"/>
   </g>
   <g id="text_5">
    <!-- 0 -->
    <g style="fill: #531d00" transform="translate(90.951875 182.2075) scale(0.08 -0.08)">
     <defs>
      <path id="DejaVuSans-Bold-30" d="M 2944 2338 
Q 2944 3213 2780 3570 
Q 2616 3928 2228 3928 
Q 1841 3928 1675 3570 
Q 1509 3213 1509 2338 
Q 1509 1453 1675 1090 
Q 1841 728 2228 728 
Q 2613 728 2778 1090 
Q 2944 1453 2944 2338 
z
M 4147 2328 
Q 4147 1169 3647 539 
Q 3147 -91 2228 -91 
Q 1306 -91 806 539 
Q 306 1169 306 2328 
Q 306 3491 806 4120 
Q 1306 4750 2228 4750 
Q 3147 4750 3647 4120 
Q 4147 3491 4147 2328 
z
" transform="scale(0.015625)"/>
     </defs>
     <use xlink:href="#DejaVuSans-Bold-30"/>
    </g>
   </g>
   <g id="patch_126">
    <path d="M 76.275 171.27 
C 78.590223 171.27 80.810932 172.189848 82.448042 173.826958 
C 84.085152 175.464068 85.005 177.684777 85.005 180 
C 85.005 182.315223 84.085152 184.535932 82.448042 186.173042 
C 80.810932 187.810152 78.590223 188.73 76.275 188.73 
C 73.959777 188.73 71.739068 187.810152 70.101958 186.173042 
C 68.464848 184.535932 67.545 182.315223 67.545 180 
C 67.545 177.684777 68.464848 175.464068 70.101958 173.826958 
C 71.739068 172.189848 73.959777 171.27 76.275 171.27 
z
" clip-path="url(#p088756a52e)" style="fill: #c0430b; stroke: #531d00; stroke-width: 0.4; stroke-linejoin: miter"/>
   </g>
  </g>
 </g>
 <defs>
  <clipPath id="p088756a52e">
   <rect x="10.8" y="27.225" width="698.4" height="305.55"/>
  </clipPath>
 </defs>
</svg>
