<?xml version="1.0" encoding="utf-8" standalone="no"?>
<!DOCTYPE svg PUBLIC "-//W3C//DTD SVG 1.1//EN"
  "http://www.w3.org/Graphics/SVG/1.1/DTD/svg11.dtd">
<svg xmlns:xlink="http://www.w3.org/1999/xlink" width="111.3pt" height="105.76875pt" viewBox="0 0 111.3 105.76875" xmlns="http://www.w3.org/2000/svg" version="1.1">
 <metadata>
  <rdf:RDF xmlns:dc="http://purl.org/dc/elements/1.1/" xmlns:cc="http://creativecommons.org/ns#" xmlns:rdf="http://www.w3.org/1999/02/22-rdf-syntax-ns#">
   <cc:Work>
    <dc:type rdf:resource="http://purl.org/dc/dcmitype/StillImage"/>
    <dc:date>2024-04-14T18:41:50.873838</dc:date>
    <dc:format>image/svg+xml</dc:format>
    <dc:creator>
     <cc:Agent>
      <dc:title>Matplotlib v3.8.3, https://matplotlib.org/</dc:title>
     </cc:Agent>
    </dc:creator>
   </cc:Work>
  </rdf:RDF>
 </metadata>
 <defs>
  <style type="text/css">*{stroke-linejoin: round; stroke-linecap: butt}</style>
 </defs>
 <g id="figure_1">
  <g id="patch_1">
   <path d="M 0 105.76875 
L 111.3 105.76875 
L 111.3 0 
L 0 0 
L 0 105.76875 
z
" style="fill: none"/>
  </g>
  <g id="axes_1">
   <g id="legend_1">
    <g id="patch_2">
     <path d="M 2 105.76875 
L 109.3 105.76875 
Q 111.3 105.76875 111.3 103.76875 
L 111.3 2 
Q 111.3 0 109.3 0 
L 2 0 
Q 0 0 0 2 
L 0 103.76875 
Q 0 105.76875 2 105.76875 
z
" style="fill: #ffffff; opacity: 0.8; stroke: #cccccc; stroke-linejoin: miter"/>
    </g>
    <g id="text_1">
     <!-- Agent: Action=[$v, \omega$] -->
     <g transform="translate(4 11.6) scale(0.1 -0.1)">
      <defs>
       <path id="DejaVuSans-41" d="M 2188 4044 
L 1331 1722 
L 3047 1722 
L 2188 4044 
z
M 1831 4666 
L 2547 4666 
L 4325 0 
L 3669 0 
L 3244 1197 
L 1141 1197 
L 716 0 
L 50 0 
L 1831 4666 
z
" transform="scale(0.015625)"/>
       <path id="DejaVuSans-67" d="M 2906 1791 
Q 2906 2416 2648 2759 
Q 2391 3103 1925 3103 
Q 1463 3103 1205 2759 
Q 947 2416 947 1791 
Q 947 1169 1205 825 
Q 1463 481 1925 481 
Q 2391 481 2648 825 
Q 2906 1169 2906 1791 
z
M 3481 434 
Q 3481 -459 3084 -895 
Q 2688 -1331 1869 -1331 
Q 1566 -1331 1297 -1286 
Q 1028 -1241 775 -1147 
L 775 -588 
Q 1028 -725 1275 -790 
Q 1522 -856 1778 -856 
Q 2344 -856 2625 -561 
Q 2906 -266 2906 331 
L 2906 616 
Q 2728 306 2450 153 
Q 2172 0 1784 0 
Q 1141 0 747 490 
Q 353 981 353 1791 
Q 353 2603 747 3093 
Q 1141 3584 1784 3584 
Q 2172 3584 2450 3431 
Q 2728 3278 2906 2969 
L 2906 3500 
L 3481 3500 
L 3481 434 
z
" transform="scale(0.015625)"/>
       <path id="DejaVuSans-65" d="M 3597 1894 
L 3597 1613 
L 953 1613 
Q 991 1019 1311 708 
Q 1631 397 2203 397 
Q 2534 397 2845 478 
Q 3156 559 3463 722 
L 3463 178 
Q 3153 47 2828 -22 
Q 2503 -91 2169 -91 
Q 1331 -91 842 396 
Q 353 884 353 1716 
Q 353 2575 817 3079 
Q 1281 3584 2069 3584 
Q 2775 3584 3186 3129 
Q 3597 2675 3597 1894 
z
M 3022 2063 
Q 3016 2534 2758 2815 
Q 2500 3097 2075 3097 
Q 1594 3097 1305 2825 
Q 1016 2553 972 2059 
L 3022 2063 
z
" transform="scale(0.015625)"/>
       <path id="DejaVuSans-6e" d="M 3513 2113 
L 3513 0 
L 2938 0 
L 2938 2094 
Q 2938 2591 2744 2837 
Q 2550 3084 2163 3084 
Q 1697 3084 1428 2787 
Q 1159 2491 1159 1978 
L 1159 0 
L 581 0 
L 581 3500 
L 1159 3500 
L 1159 2956 
Q 1366 3272 1645 3428 
Q 1925 3584 2291 3584 
Q 2894 3584 3203 3211 
Q 3513 2838 3513 2113 
z
" transform="scale(0.015625)"/>
       <path id="DejaVuSans-74" d="M 1172 4494 
L 1172 3500 
L 2356 3500 
L 2356 3053 
L 1172 3053 
L 1172 1153 
Q 1172 725 1289 603 
Q 1406 481 1766 481 
L 2356 481 
L 2356 0 
L 1766 0 
Q 1100 0 847 248 
Q 594 497 594 1153 
L 594 3053 
L 172 3053 
L 172 3500 
L 594 3500 
L 594 4494 
L 1172 4494 
z
" transform="scale(0.015625)"/>
       <path id="DejaVuSans-3a" d="M 750 794 
L 1409 794 
L 1409 0 
L 750 0 
L 750 794 
z
M 750 3309 
L 1409 3309 
L 1409 2516 
L 750 2516 
L 750 3309 
z
" transform="scale(0.015625)"/>
       <path id="DejaVuSans-20" transform="scale(0.015625)"/>
       <path id="DejaVuSans-63" d="M 3122 3366 
L 3122 2828 
Q 2878 2963 2633 3030 
Q 2388 3097 2138 3097 
Q 1578 3097 1268 2742 
Q 959 2388 959 1747 
Q 959 1106 1268 751 
Q 1578 397 2138 397 
Q 2388 397 2633 464 
Q 2878 531 3122 666 
L 3122 134 
Q 2881 22 2623 -34 
Q 2366 -91 2075 -91 
Q 1284 -91 818 406 
Q 353 903 353 1747 
Q 353 2603 823 3093 
Q 1294 3584 2113 3584 
Q 2378 3584 2631 3529 
Q 2884 3475 3122 3366 
z
" transform="scale(0.015625)"/>
       <path id="DejaVuSans-69" d="M 603 3500 
L 1178 3500 
L 1178 0 
L 603 0 
L 603 3500 
z
M 603 4863 
L 1178 4863 
L 1178 4134 
L 603 4134 
L 603 4863 
z
" transform="scale(0.015625)"/>
       <path id="DejaVuSans-6f" d="M 1959 3097 
Q 1497 3097 1228 2736 
Q 959 2375 959 1747 
Q 959 1119 1226 758 
Q 1494 397 1959 397 
Q 2419 397 2687 759 
Q 2956 1122 2956 1747 
Q 2956 2369 2687 2733 
Q 2419 3097 1959 3097 
z
M 1959 3584 
Q 2709 3584 3137 3096 
Q 3566 2609 3566 1747 
Q 3566 888 3137 398 
Q 2709 -91 1959 -91 
Q 1206 -91 779 398 
Q 353 888 353 1747 
Q 353 2609 779 3096 
Q 1206 3584 1959 3584 
z
" transform="scale(0.015625)"/>
       <path id="DejaVuSans-3d" d="M 678 2906 
L 4684 2906 
L 4684 2381 
L 678 2381 
L 678 2906 
z
M 678 1631 
L 4684 1631 
L 4684 1100 
L 678 1100 
L 678 1631 
z
" transform="scale(0.015625)"/>
       <path id="DejaVuSans-5b" d="M 550 4863 
L 1875 4863 
L 1875 4416 
L 1125 4416 
L 1125 -397 
L 1875 -397 
L 1875 -844 
L 550 -844 
L 550 4863 
z
" transform="scale(0.015625)"/>
       <path id="DejaVuSans-Oblique-76" d="M 459 3500 
L 1069 3500 
L 1581 525 
L 3256 3500 
L 3866 3500 
L 1875 0 
L 1100 0 
L 459 3500 
z
" transform="scale(0.015625)"/>
       <path id="DejaVuSans-2c" d="M 750 794 
L 1409 794 
L 1409 256 
L 897 -744 
L 494 -744 
L 750 256 
L 750 794 
z
" transform="scale(0.015625)"/>
       <path id="DejaVuSans-Oblique-3c9" d="M 1369 -91 
Q 72 -91 434 1766 
Q 575 2500 1256 3500 
L 1875 3500 
Q 1231 2500 1088 1750 
Q 819 397 1519 397 
Q 2166 397 2478 2078 
L 3009 2078 
Q 2669 388 3316 397 
Q 4013 403 4275 1750 
Q 4419 2500 4169 3500 
L 4788 3500 
Q 5075 2500 4934 1766 
Q 4578 -94 3278 -91 
Q 2428 -88 2503 844 
Q 2194 -91 1369 -91 
z
" transform="scale(0.015625)"/>
       <path id="DejaVuSans-5d" d="M 1947 4863 
L 1947 -844 
L 622 -844 
L 622 -397 
L 1369 -397 
L 1369 4416 
L 622 4416 
L 622 4863 
L 1947 4863 
z
" transform="scale(0.015625)"/>
      </defs>
      <use xlink:href="#DejaVuSans-41" transform="translate(0 0.015625)"/>
      <use xlink:href="#DejaVuSans-67" transform="translate(68.408203 0.015625)"/>
      <use xlink:href="#DejaVuSans-65" transform="translate(131.884766 0.015625)"/>
      <use xlink:href="#DejaVuSans-6e" transform="translate(193.408203 0.015625)"/>
      <use xlink:href="#DejaVuSans-74" transform="translate(256.787109 0.015625)"/>
      <use xlink:href="#DejaVuSans-3a" transform="translate(295.996094 0.015625)"/>
      <use xlink:href="#DejaVuSans-20" transform="translate(329.6875 0.015625)"/>
      <use xlink:href="#DejaVuSans-41" transform="translate(361.474609 0.015625)"/>
      <use xlink:href="#DejaVuSans-63" transform="translate(429.882812 0.015625)"/>
      <use xlink:href="#DejaVuSans-74" transform="translate(484.863281 0.015625)"/>
      <use xlink:href="#DejaVuSans-69" transform="translate(524.072266 0.015625)"/>
      <use xlink:href="#DejaVuSans-6f" transform="translate(551.855469 0.015625)"/>
      <use xlink:href="#DejaVuSans-6e" transform="translate(613.037109 0.015625)"/>
      <use xlink:href="#DejaVuSans-3d" transform="translate(676.416016 0.015625)"/>
      <use xlink:href="#DejaVuSans-5b" transform="translate(760.205078 0.015625)"/>
      <use xlink:href="#DejaVuSans-Oblique-76" transform="translate(799.21875 0.015625)"/>
      <use xlink:href="#DejaVuSans-2c" transform="translate(858.398438 0.015625)"/>
      <use xlink:href="#DejaVuSans-Oblique-3c9" transform="translate(909.667969 0.015625)"/>
      <use xlink:href="#DejaVuSans-5d" transform="translate(993.408203 0.015625)"/>
     </g>
    </g>
    <g id="line2d_1">
     <path d="M 7.227344 22.798438 
L 17.227344 22.798438 
L 27.227344 22.798438 
" style="fill: none; stroke: #d0e1f2; stroke-width: 1.5; stroke-linecap: square"/>
     <defs>
      <path id="m6548c14dab" d="M -3 -0 
L 3 3 
L 3 -3 
z
" style="stroke: #d0e1f2; stroke-linejoin: miter"/>
     </defs>
     <g>
      <use xlink:href="#m6548c14dab" x="17.227344" y="22.798438" style="fill: #d0e1f2; stroke: #d0e1f2; stroke-linejoin: miter"/>
     </g>
    </g>
    <g id="text_2">
     <!-- 1: [0.0, -1.57] -->
     <g transform="translate(35.227344 26.298438) scale(0.1 -0.1)">
      <defs>
       <path id="DejaVuSans-31" d="M 794 531 
L 1825 531 
L 1825 4091 
L 703 3866 
L 703 4441 
L 1819 4666 
L 2450 4666 
L 2450 531 
L 3481 531 
L 3481 0 
L 794 0 
L 794 531 
z
" transform="scale(0.015625)"/>
       <path id="DejaVuSans-30" d="M 2034 4250 
Q 1547 4250 1301 3770 
Q 1056 3291 1056 2328 
Q 1056 1369 1301 889 
Q 1547 409 2034 409 
Q 2525 409 2770 889 
Q 3016 1369 3016 2328 
Q 3016 3291 2770 3770 
Q 2525 4250 2034 4250 
z
M 2034 4750 
Q 2819 4750 3233 4129 
Q 3647 3509 3647 2328 
Q 3647 1150 3233 529 
Q 2819 -91 2034 -91 
Q 1250 -91 836 529 
Q 422 1150 422 2328 
Q 422 3509 836 4129 
Q 1250 4750 2034 4750 
z
" transform="scale(0.015625)"/>
       <path id="DejaVuSans-2e" d="M 684 794 
L 1344 794 
L 1344 0 
L 684 0 
L 684 794 
z
" transform="scale(0.015625)"/>
       <path id="DejaVuSans-2d" d="M 313 2009 
L 1997 2009 
L 1997 1497 
L 313 1497 
L 313 2009 
z
" transform="scale(0.015625)"/>
       <path id="DejaVuSans-35" d="M 691 4666 
L 3169 4666 
L 3169 4134 
L 1269 4134 
L 1269 2991 
Q 1406 3038 1543 3061 
Q 1681 3084 1819 3084 
Q 2600 3084 3056 2656 
Q 3513 2228 3513 1497 
Q 3513 744 3044 326 
Q 2575 -91 1722 -91 
Q 1428 -91 1123 -41 
Q 819 9 494 109 
L 494 744 
Q 775 591 1075 516 
Q 1375 441 1709 441 
Q 2250 441 2565 725 
Q 2881 1009 2881 1497 
Q 2881 1984 2565 2268 
Q 2250 2553 1709 2553 
Q 1456 2553 1204 2497 
Q 953 2441 691 2322 
L 691 4666 
z
" transform="scale(0.015625)"/>
       <path id="DejaVuSans-37" d="M 525 4666 
L 3525 4666 
L 3525 4397 
L 1831 0 
L 1172 0 
L 2766 4134 
L 525 4134 
L 525 4666 
z
" transform="scale(0.015625)"/>
      </defs>
      <use xlink:href="#DejaVuSans-31"/>
      <use xlink:href="#DejaVuSans-3a" x="63.623047"/>
      <use xlink:href="#DejaVuSans-20" x="97.314453"/>
      <use xlink:href="#DejaVuSans-5b" x="129.101562"/>
      <use xlink:href="#DejaVuSans-30" x="168.115234"/>
      <use xlink:href="#DejaVuSans-2e" x="231.738281"/>
      <use xlink:href="#DejaVuSans-30" x="263.525391"/>
      <use xlink:href="#DejaVuSans-2c" x="327.148438"/>
      <use xlink:href="#DejaVuSans-20" x="358.935547"/>
      <use xlink:href="#DejaVuSans-2d" x="390.722656"/>
      <use xlink:href="#DejaVuSans-31" x="426.806641"/>
      <use xlink:href="#DejaVuSans-2e" x="490.429688"/>
      <use xlink:href="#DejaVuSans-35" x="522.216797"/>
      <use xlink:href="#DejaVuSans-37" x="585.839844"/>
      <use xlink:href="#DejaVuSans-5d" x="649.462891"/>
     </g>
    </g>
    <g id="line2d_2">
     <path d="M 7.227344 37.476563 
L 17.227344 37.476563 
L 27.227344 37.476563 
" style="fill: none; stroke: #b0d2e7; stroke-width: 1.5; stroke-linecap: square"/>
     <defs>
      <path id="me0e8644db9" d="M 0 3 
C 0.795609 3 1.55874 2.683901 2.12132 2.12132 
C 2.683901 1.55874 3 0.795609 3 0 
C 3 -0.795609 2.683901 -1.55874 2.12132 -2.12132 
C 1.55874 -2.683901 0.795609 -3 0 -3 
C -0.795609 -3 -1.55874 -2.683901 -2.12132 -2.12132 
C -2.683901 -1.55874 -3 -0.795609 -3 0 
C -3 0.795609 -2.683901 1.55874 -2.12132 2.12132 
C -1.55874 2.683901 -0.795609 3 0 3 
z
" style="stroke: #b0d2e7"/>
     </defs>
     <g>
      <use xlink:href="#me0e8644db9" x="17.227344" y="37.476563" style="fill: #b0d2e7; stroke: #b0d2e7"/>
     </g>
    </g>
    <g id="text_3">
     <!-- 1: [0.0, 0.0] -->
     <g transform="translate(35.227344 40.976563) scale(0.1 -0.1)">
      <use xlink:href="#DejaVuSans-31"/>
      <use xlink:href="#DejaVuSans-3a" x="63.623047"/>
      <use xlink:href="#DejaVuSans-20" x="97.314453"/>
      <use xlink:href="#DejaVuSans-5b" x="129.101562"/>
      <use xlink:href="#DejaVuSans-30" x="168.115234"/>
      <use xlink:href="#DejaVuSans-2e" x="231.738281"/>
      <use xlink:href="#DejaVuSans-30" x="263.525391"/>
      <use xlink:href="#DejaVuSans-2c" x="327.148438"/>
      <use xlink:href="#DejaVuSans-20" x="358.935547"/>
      <use xlink:href="#DejaVuSans-30" x="390.722656"/>
      <use xlink:href="#DejaVuSans-2e" x="454.345703"/>
      <use xlink:href="#DejaVuSans-30" x="486.132812"/>
      <use xlink:href="#DejaVuSans-5d" x="549.755859"/>
     </g>
    </g>
    <g id="line2d_3">
     <path d="M 7.227344 52.154688 
L 17.227344 52.154688 
L 27.227344 52.154688 
" style="fill: none; stroke: #84bcdb; stroke-width: 1.5; stroke-linecap: square"/>
     <defs>
      <path id="m33455e7e0f" d="M 3 0 
L -3 -3 
L -3 3 
z
" style="stroke: #84bcdb; stroke-linejoin: miter"/>
     </defs>
     <g>
      <use xlink:href="#m33455e7e0f" x="17.227344" y="52.154688" style="fill: #84bcdb; stroke: #84bcdb; stroke-linejoin: miter"/>
     </g>
    </g>
    <g id="text_4">
     <!-- 1: [0.0, 1.57] -->
     <g transform="translate(35.227344 55.654688) scale(0.1 -0.1)">
      <use xlink:href="#DejaVuSans-31"/>
      <use xlink:href="#DejaVuSans-3a" x="63.623047"/>
      <use xlink:href="#DejaVuSans-20" x="97.314453"/>
      <use xlink:href="#DejaVuSans-5b" x="129.101562"/>
      <use xlink:href="#DejaVuSans-30" x="168.115234"/>
      <use xlink:href="#DejaVuSans-2e" x="231.738281"/>
      <use xlink:href="#DejaVuSans-30" x="263.525391"/>
      <use xlink:href="#DejaVuSans-2c" x="327.148438"/>
      <use xlink:href="#DejaVuSans-20" x="358.935547"/>
      <use xlink:href="#DejaVuSans-31" x="390.722656"/>
      <use xlink:href="#DejaVuSans-2e" x="454.345703"/>
      <use xlink:href="#DejaVuSans-35" x="486.132812"/>
      <use xlink:href="#DejaVuSans-37" x="549.755859"/>
      <use xlink:href="#DejaVuSans-5d" x="613.378906"/>
     </g>
    </g>
    <g id="line2d_4">
     <path d="M 7.227344 66.832813 
L 17.227344 66.832813 
L 27.227344 66.832813 
" style="fill: none; stroke: #57a0ce; stroke-width: 1.5; stroke-linecap: square"/>
     <defs>
      <path id="m9a751e755d" d="M -3 -0 
L 3 3 
L 3 -3 
z
" style="stroke: #57a0ce; stroke-linejoin: miter"/>
     </defs>
     <g>
      <use xlink:href="#m9a751e755d" x="17.227344" y="66.832813" style="fill: #57a0ce; stroke: #57a0ce; stroke-linejoin: miter"/>
     </g>
    </g>
    <g id="text_5">
     <!-- 1: [1.0, -1.57] -->
     <g transform="translate(35.227344 70.332813) scale(0.1 -0.1)">
      <use xlink:href="#DejaVuSans-31"/>
      <use xlink:href="#DejaVuSans-3a" x="63.623047"/>
      <use xlink:href="#DejaVuSans-20" x="97.314453"/>
      <use xlink:href="#DejaVuSans-5b" x="129.101562"/>
      <use xlink:href="#DejaVuSans-31" x="168.115234"/>
      <use xlink:href="#DejaVuSans-2e" x="231.738281"/>
      <use xlink:href="#DejaVuSans-30" x="263.525391"/>
      <use xlink:href="#DejaVuSans-2c" x="327.148438"/>
      <use xlink:href="#DejaVuSans-20" x="358.935547"/>
      <use xlink:href="#DejaVuSans-2d" x="390.722656"/>
      <use xlink:href="#DejaVuSans-31" x="426.806641"/>
      <use xlink:href="#DejaVuSans-2e" x="490.429688"/>
      <use xlink:href="#DejaVuSans-35" x="522.216797"/>
      <use xlink:href="#DejaVuSans-37" x="585.839844"/>
      <use xlink:href="#DejaVuSans-5d" x="649.462891"/>
     </g>
    </g>
    <g id="line2d_5">
     <path d="M 7.227344 81.510938 
L 17.227344 81.510938 
L 27.227344 81.510938 
" style="fill: none; stroke: #3383be; stroke-width: 1.5; stroke-linecap: square"/>
     <defs>
      <path id="m571628f122" d="M 0 -3 
L -3 3 
L 3 3 
z
" style="stroke: #3383be; stroke-linejoin: miter"/>
     </defs>
     <g>
      <use xlink:href="#m571628f122" x="17.227344" y="81.510938" style="fill: #3383be; stroke: #3383be; stroke-linejoin: miter"/>
     </g>
    </g>
    <g id="text_6">
     <!-- 1: [1.0, 0.0] -->
     <g transform="translate(35.227344 85.010938) scale(0.1 -0.1)">
      <use xlink:href="#DejaVuSans-31"/>
      <use xlink:href="#DejaVuSans-3a" x="63.623047"/>
      <use xlink:href="#DejaVuSans-20" x="97.314453"/>
      <use xlink:href="#DejaVuSans-5b" x="129.101562"/>
      <use xlink:href="#DejaVuSans-31" x="168.115234"/>
      <use xlink:href="#DejaVuSans-2e" x="231.738281"/>
      <use xlink:href="#DejaVuSans-30" x="263.525391"/>
      <use xlink:href="#DejaVuSans-2c" x="327.148438"/>
      <use xlink:href="#DejaVuSans-20" x="358.935547"/>
      <use xlink:href="#DejaVuSans-30" x="390.722656"/>
      <use xlink:href="#DejaVuSans-2e" x="454.345703"/>
      <use xlink:href="#DejaVuSans-30" x="486.132812"/>
      <use xlink:href="#DejaVuSans-5d" x="549.755859"/>
     </g>
    </g>
    <g id="line2d_6">
     <path d="M 7.227344 96.189063 
L 17.227344 96.189063 
L 27.227344 96.189063 
" style="fill: none; stroke: #1764ab; stroke-width: 1.5; stroke-linecap: square"/>
     <defs>
      <path id="m9aec537747" d="M 3 0 
L -3 -3 
L -3 3 
z
" style="stroke: #1764ab; stroke-linejoin: miter"/>
     </defs>
     <g>
      <use xlink:href="#m9aec537747" x="17.227344" y="96.189063" style="fill: #1764ab; stroke: #1764ab; stroke-linejoin: miter"/>
     </g>
    </g>
    <g id="text_7">
     <!-- 1: [1.0, 1.57] -->
     <g transform="translate(35.227344 99.689063) scale(0.1 -0.1)">
      <use xlink:href="#DejaVuSans-31"/>
      <use xlink:href="#DejaVuSans-3a" x="63.623047"/>
      <use xlink:href="#DejaVuSans-20" x="97.314453"/>
      <use xlink:href="#DejaVuSans-5b" x="129.101562"/>
      <use xlink:href="#DejaVuSans-31" x="168.115234"/>
      <use xlink:href="#DejaVuSans-2e" x="231.738281"/>
      <use xlink:href="#DejaVuSans-30" x="263.525391"/>
      <use xlink:href="#DejaVuSans-2c" x="327.148438"/>
      <use xlink:href="#DejaVuSans-20" x="358.935547"/>
      <use xlink:href="#DejaVuSans-31" x="390.722656"/>
      <use xlink:href="#DejaVuSans-2e" x="454.345703"/>
      <use xlink:href="#DejaVuSans-35" x="486.132812"/>
      <use xlink:href="#DejaVuSans-37" x="549.755859"/>
      <use xlink:href="#DejaVuSans-5d" x="613.378906"/>
     </g>
    </g>
   </g>
  </g>
 </g>
</svg>
